<?xml version="1.0" encoding="utf-8"?>
<!-- Generator: Adobe Illustrator 21.0.0, SVG Export Plug-In . SVG Version: 6.00 Build 0)  -->
<svg version="1.1" id="Layer_1" xmlns="http://www.w3.org/2000/svg" xmlns:xlink="http://www.w3.org/1999/xlink" x="0px" y="0px"
	 viewBox="0 0 162 81" style="enable-background:new 0 0 162 81;" xml:space="preserve">
<style type="text/css">
	.st0{fill:#F2F2F2;}
</style>
<g>
	<path class="st0" d="M42.6,41.8c1.4,1.4,2.1,3.4,2.1,6.2c0,3.6-1.2,6.3-3.6,8c-2.4,1.8-5.7,2.6-9.9,2.6h-9.4V21.4h8.2
		c4.3,0,7.6,0.8,9.9,2.4c2.3,1.6,3.5,4,3.5,7.1c0,2.1-0.6,3.8-1.8,5.2c-1.2,1.4-2.7,2.3-4.7,2.9C39.3,39.5,41.2,40.5,42.6,41.8z
		 M28.6,26.5v10.3h2.3c3.6,0,5.5-1.8,5.5-5.3c0-1.8-0.5-3-1.4-3.8c-0.9-0.8-2.4-1.2-4.4-1.2H28.6z M35.9,52.2
		c1.1-0.9,1.6-2.4,1.6-4.5c0-2.1-0.5-3.6-1.5-4.6c-1-1-2.6-1.5-4.7-1.5h-2.8v11.9h2.6C33.3,53.5,34.9,53.1,35.9,52.2z"/>
	<path class="st0" d="M65.9,58.7l-6.6-15.1h-0.6H56v15.1h-6.9V21.4H58c9,0,13.5,3.7,13.5,11c0,2.3-0.5,4.3-1.5,6
		c-1,1.7-2.5,3.1-4.5,4l7.9,16.4H65.9z M62.9,37.2c1-1,1.4-2.6,1.4-4.8c0-2.1-0.5-3.6-1.5-4.5c-1-1-2.6-1.4-4.9-1.4H56v12.3h2.3
		C60.4,38.7,62,38.2,62.9,37.2z"/>
	<path class="st0" d="M83.6,21.4v37.3h-6.9V21.4H83.6z"/>
	<path class="st0" d="M106.8,58.7L105,50h-9.6l-1.8,8.7h-6.9l9.4-37.3h8.3l9.3,37.3H106.8z M96.5,44.8h7.5l-3.8-18.1L96.5,44.8z"/>
	<path class="st0" d="M140.3,58.7h-8.7l-9.5-30.6c0.3,2.6,0.5,5,0.7,7.2c0.2,2.2,0.2,4.8,0.2,7.7v15.7h-6V21.4h8.7l9.5,30.6
		c-0.2-1.3-0.4-3.1-0.6-5.5c-0.2-2.4-0.3-4.8-0.3-7.2V21.4h6.1V58.7z"/>
</g>
<polygon class="st0" points="36,0 9,0 0,0 0,9 0,36 9,36 9,9 36,9 "/>
<polygon class="st0" points="153,45 153,72 126,72 126,81 153,81 162,81 162,72 162,45 "/>
</svg>
